<svg xmlns="http://www.w3.org/2000/svg" version="1.1" xmlns:xlink="http://www.w3.org/1999/xlink" xmlns:svgjs="http://svgjs.dev/svgjs" width="1500" height="1500" viewBox="0 0 1500 1500"><rect width="1500" height="1500" fill="#ffffff"></rect><g transform="matrix(0.6666666666666666,0,0,0.6666666666666666,250,246.54867166852955)"><svg viewBox="0 0 280 281" data-background-color="#ffffff" preserveAspectRatio="xMidYMid meet" height="1505" width="1500" xmlns="http://www.w3.org/2000/svg" xmlns:xlink="http://www.w3.org/1999/xlink"><g id="tight-bounds" transform="matrix(1,0,0,1,0,0.49982384831548643)"><svg viewBox="0 0 280 280" height="280" width="280"><g><svg viewBox="0 0 280 280" height="280" width="280"><g><svg viewBox="0 0 280 280" height="280" width="280"><g id="textblocktransform"><svg viewBox="0 0 280 280" height="280" width="280" id="textblock"><g><svg viewBox="0 0 280 280" height="280" width="280"><g transform="matrix(1,0,0,1,75.34950894629227,74.00336708925556)"><svg viewBox="0 0 129.30098210741545 131.99326582148888" height="131.99326582148888" width="129.30098210741545"><g id="icon-0"><svg version="1.0" xmlns="http://www.w3.org/2000/svg" xmlns:xlink="http://www.w3.org/1999/xlink" x="0" y="0" viewBox="0 0.00029304393423368325 97.96 99.99970695606576" enable-background="new 0 0 97.96 100" xml:space="preserve" id="jxe-0" width="129.30098210741545" height="131.99326582148888" class="icon-jxe-0" data-fill-palette-color="accent"><path d="M50.915 0.889A2.552 2.552 0 0 0 47.044 0.889 17.35 17.35 0 0 0 42.856 12.191V34.694L0 68.367V78.571L42.857 62.245V77.551C42.857 78.975 43.208 80.377 43.878 81.633L28.572 91.837V100L48.98 91.837 69.388 100V91.837L54.082 81.633A8.7 8.7 0 0 0 55.103 77.551V62.245L97.96 78.571V68.367L55.103 34.694V12.191C55.103 8.044 53.617 4.035 50.915 0.889" fill="#b0beee" data-fill-palette-color="accent"></path></svg></g></svg></g><g id="text-0"><path d="M30.696 105.749v0c-0.112 0.32-0.279 0.624-0.501 0.913-0.223 0.295-0.57 0.479-1.04 0.554-0.468 0.068-1.113-0.042-1.934-0.331v0c-0.583-0.205-1.283-0.5-2.098-0.886-0.807-0.39-1.672-0.835-2.596-1.335v0c-1.248-0.678-2.581-1.348-3.997-2.008-1.415-0.666-2.89-1.27-4.427-1.81v0c-1.242-0.437-2.341-0.756-3.299-0.959-0.951-0.201-1.711-0.295-2.278-0.283v0c-0.328 1.012-0.597 1.989-0.808 2.929-0.209 0.934-0.357 1.907-0.445 2.919v0c-0.057 0.241-0.097 0.456-0.121 0.645-0.016 0.185-0.052 0.359-0.109 0.521v0c-0.084 0.238-0.19 0.391-0.32 0.459-0.132 0.074-0.382 0.045-0.752-0.085v0c-0.452-0.159-0.899-0.39-1.342-0.694-0.443-0.304-0.79-0.648-1.043-1.032v0c-0.277-0.393-0.438-0.799-0.481-1.216-0.044-0.417-0.019-0.849 0.075-1.295v0c0.156-0.685 0.381-1.554 0.673-2.606 0.295-1.059 0.633-2.212 1.015-3.459 0.382-1.247 0.782-2.466 1.201-3.657v0c0.679-1.931 1.177-3.307 1.493-4.126 0.318-0.825 0.554-1.376 0.708-1.654v0c0.187-0.35 0.39-0.568 0.61-0.652 0.226-0.083 0.524-0.059 0.895 0.071v0c0.715 0.251 1.315 0.818 1.801 1.701v0c0.227 0.376 0.374 0.741 0.439 1.095 0.074 0.35 0.015 0.759-0.177 1.227v0c-0.204 0.4-0.463 1.007-0.778 1.82-0.314 0.813-0.647 1.721-1 2.724v0c0.913 0.349 1.963 0.799 3.151 1.351 1.194 0.553 2.382 1.13 3.567 1.729v0c1.161 0.585 2.332 1.144 3.511 1.679 1.179 0.534 2.27 0.978 3.273 1.33v0c0.922 0.324 1.765 0.522 2.529 0.593 0.762 0.078 1.487-0.062 2.177-0.418v0c0.5-0.24 0.963-0.285 1.389-0.135v0c0.577 0.203 0.987 0.72 1.23 1.553 0.245 0.826 0.181 1.769-0.191 2.828z" fill="#0089c4" data-fill-palette-color="primary"></path><path d="M37.927 88.72v0c-0.22 0.387-0.462 0.659-0.726 0.815-0.264 0.156-0.536 0.109-0.814-0.141v0c-0.892-0.865-1.831-1.696-2.816-2.492-0.976-0.798-1.964-1.481-2.965-2.049v0c-1.295-0.735-2.285-1.193-2.968-1.375-0.687-0.176-1.225-0.198-1.613-0.067-0.385 0.141-0.749 0.37-1.09 0.689v0c-0.168 0.134-0.35 0.233-0.547 0.297-0.197 0.064-0.405 0.034-0.625-0.091v0c-0.341-0.194-0.644-0.541-0.91-1.043-0.262-0.508-0.409-1.092-0.439-1.751-0.025-0.656 0.143-1.302 0.503-1.939v0c0.469-0.827 1.083-1.243 1.843-1.247 0.759-0.005 1.602 0.255 2.527 0.78v0c-0.728-0.994-1.194-1.977-1.4-2.949-0.205-0.972-0.032-1.944 0.52-2.916v0c0.374-0.659 0.833-1.125 1.377-1.396 0.544-0.272 1.143-0.223 1.796 0.147v0c0.659 0.374 1.153 0.937 1.483 1.69 0.33 0.753 0.371 1.346 0.125 1.78v0c-0.043 0.075-0.103 0.155-0.182 0.24-0.079 0.085-0.187 0.135-0.325 0.148v0c-0.568 0.098-0.983 0.379-1.245 0.841v0c-0.403 0.711-0.294 1.595 0.33 2.652 0.62 1.063 1.733 2.084 3.34 3.065v0c0.623 0.316 1.256 0.648 1.899 0.997 0.637 0.346 1.103 0.603 1.397 0.77v0c0.902 0.512 1.502 1.185 1.801 2.019 0.302 0.829 0.21 1.671-0.276 2.526z" fill="#0089c4" data-fill-palette-color="primary"></path><path d="M51.184 69.543v0c-1.105 1.268-2.39 1.942-3.854 2.024-1.464 0.081-2.938-0.524-4.421-1.818v0c-1.052-0.917-1.921-2.04-2.606-3.369-0.689-1.324-1.116-2.746-1.281-4.266-0.16-1.516-0.015-3.043 0.435-4.581 0.446-1.543 1.267-3.001 2.464-4.373v0c1.105-1.268 2.269-2.163 3.491-2.685 1.213-0.521 2.19-0.459 2.931 0.188v0c0.19 0.166 0.419 0.405 0.685 0.716 0.271 0.307 0.473 0.575 0.607 0.807v0c0.118 0.209 0.194 0.43 0.229 0.663 0.035 0.243-0.03 0.459-0.196 0.649v0c-0.07 0.08-0.24 0.21-0.51 0.388v0c0.367 0.47 0.746 0.91 1.136 1.322 0.382 0.412 0.783 0.801 1.204 1.168v0c0.807 0.703 1.628 1.203 2.463 1.499 0.831 0.301 1.636 0.156 2.416-0.434v0c0.206-0.155 0.402-0.254 0.587-0.294 0.186-0.041 0.416 0.059 0.692 0.299v0c0.23 0.201 0.476 0.516 0.736 0.946 0.26 0.43 0.389 0.934 0.387 1.514 0.002 0.575-0.264 1.168-0.797 1.779v0c-0.721 0.827-1.576 1.196-2.567 1.109-0.99-0.078-2.044-0.604-3.162-1.579v0c0.534 1.471 0.747 2.931 0.64 4.38-0.108 1.449-0.677 2.765-1.709 3.948zM48.769 65.652v0c0.738-0.847 1.124-1.82 1.157-2.921 0.032-1.109-0.195-2.194-0.682-3.253v0c-0.305-0.672-0.704-1.332-1.196-1.982-0.488-0.654-1.01-1.259-1.566-1.815v0c-0.485 0.212-0.981 0.503-1.488 0.872-0.511 0.374-0.988 0.814-1.429 1.321v0c-1.127 1.293-1.675 2.685-1.643 4.176 0.032 1.501 0.619 2.749 1.762 3.745v0c0.847 0.738 1.731 1.099 2.654 1.083 0.922-0.016 1.733-0.425 2.431-1.226z" fill="#0089c4" data-fill-palette-color="primary"></path><path d="M72.058 49.992v0c-0.617 0.44-1.283 0.628-1.996 0.565-0.71-0.057-1.477-0.568-2.303-1.53v0c-0.6-0.74-1.307-1.526-2.12-2.359-0.819-0.829-1.643-1.584-2.471-2.267-0.829-0.683-1.564-1.159-2.205-1.429v0c-0.334-0.137-0.643-0.199-0.927-0.184-0.284 0.014-0.638 0.136-1.063 0.365v0c-0.264 0.156-0.491 0.199-0.679 0.129-0.192-0.075-0.393-0.259-0.601-0.552v0c-0.667-0.937-0.904-1.813-0.709-2.628 0.198-0.81 0.628-1.451 1.288-1.922v0c0.688-0.49 1.417-0.675 2.188-0.554 0.775 0.125 1.55 0.463 2.325 1.013 0.77 0.554 1.518 1.232 2.246 2.036 0.728 0.804 1.41 1.653 2.046 2.546v0c0.258 0.363 0.525 0.748 0.799 1.157 0.275 0.408 0.508 0.748 0.701 1.018v0c0.181 0.254 0.371 0.413 0.571 0.475 0.199 0.062 0.448-0.013 0.745-0.225v0c0.363-0.258 0.708-0.667 1.036-1.227 0.322-0.556 0.572-1.207 0.75-1.955 0.173-0.743 0.215-1.503 0.126-2.281-0.089-0.778-0.378-1.51-0.867-2.197v0c-0.274-0.384-0.629-0.752-1.066-1.102-0.433-0.344-0.892-0.565-1.376-0.66v0c-0.488-0.101-0.856-0.194-1.105-0.279-0.248-0.085-0.453-0.241-0.614-0.468v0c-0.293-0.412-0.372-0.923-0.236-1.533 0.131-0.607 0.38-1.197 0.748-1.769 0.368-0.572 0.747-0.997 1.136-1.275v0c0.661-0.47 1.278-0.498 1.852-0.082 0.568 0.42 1.089 0.962 1.563 1.628v0c0.895 1.256 1.602 2.731 2.124 4.425 0.521 1.694 0.814 3.411 0.878 5.153 0.07 1.737-0.119 3.316-0.568 4.737-0.449 1.421-1.187 2.498-2.216 3.231z" fill="#0089c4" data-fill-palette-color="primary"></path><path d="M94.795 36.96v0c-1.952 0.845-3.717 0.942-5.295 0.292-1.581-0.641-2.806-1.965-3.675-3.972v0c-0.789-1.824-1.108-3.656-0.956-5.497 0.152-1.841 0.711-3.495 1.677-4.963 0.972-1.471 2.266-2.556 3.882-3.256v0c1.543-0.668 2.943-0.824 4.197-0.469 1.255 0.355 2.155 1.164 2.702 2.427v0c0.433 1 0.526 2.061 0.28 3.182-0.255 1.117-0.787 2.148-1.596 3.092-0.815 0.946-1.853 1.693-3.116 2.239v0c-1.543 0.668-2.954 0.865-4.23 0.593v0c0.537 1.173 1.354 1.949 2.452 2.328 1.099 0.379 2.264 0.302 3.496-0.231v0c0.744-0.322 1.452-0.788 2.123-1.397 0.671-0.609 1.187-1.267 1.547-1.973v0c0.225-0.467 0.493-0.768 0.805-0.902v0c0.256-0.111 0.507-0.118 0.751-0.021 0.236 0.093 0.409 0.268 0.521 0.524v0c0.246 0.567 0.081 1.526-0.494 2.876v0c-1.014 2.394-2.704 4.104-5.071 5.128zM91.456 27.638v0c0.921-0.399 1.61-0.925 2.065-1.579 0.447-0.657 0.543-1.282 0.287-1.873v0c-0.211-0.488-0.582-0.777-1.113-0.865-0.525-0.092-1.147 0.018-1.867 0.33v0c-0.952 0.412-1.673 1.021-2.165 1.827-0.491 0.807-0.697 1.729-0.617 2.766v0c0.46 0.076 1.002 0.055 1.625-0.062 0.623-0.117 1.218-0.299 1.785-0.544z" fill="#0089c4" data-fill-palette-color="primary"></path><path d="M115.411 30.035v0c-0.79 0.182-1.427 0.1-1.908-0.247-0.484-0.353-0.851-1.073-1.102-2.161v0c-0.121-0.525-0.233-1.205-0.336-2.04-0.112-0.841-0.222-1.75-0.331-2.728v0c-0.108-1.21-0.249-2.473-0.423-3.791-0.172-1.311-0.393-2.553-0.663-3.725v0c-0.383-1.665-0.856-3.377-1.418-5.137-0.561-1.754-1.335-3.219-2.322-4.398v0c-0.373-0.494-0.588-0.864-0.644-1.11v0c-0.082-0.356-0.005-0.732 0.231-1.127 0.241-0.403 0.565-0.775 0.972-1.114 0.414-0.334 0.838-0.551 1.272-0.651v0c0.713-0.164 1.321 0.034 1.825 0.593 0.504 0.559 0.938 1.38 1.304 2.462 0.357 1.077 0.7 2.329 1.027 3.754v0c0.497 2.157 0.839 4.046 1.029 5.667 0.19 1.627 0.339 3.06 0.446 4.297v0c0.073 0.822 0.146 1.597 0.218 2.324 0.067 0.735 0.167 1.391 0.3 1.967v0c0.219 0.952 0.533 1.603 0.94 1.953 0.416 0.354 1.027 0.654 1.834 0.897v0c0.213 0.067 0.38 0.138 0.499 0.213 0.118 0.068 0.199 0.2 0.244 0.394v0c0.051 0.22 0.019 0.586-0.096 1.096-0.113 0.517-0.391 1.028-0.834 1.533-0.443 0.504-1.131 0.864-2.064 1.078z" fill="#0089c4" data-fill-palette-color="primary"></path><path d="M139.084 27.861v0c-1.987 0.044-3.742-0.366-5.263-1.229-1.522-0.864-2.706-2.114-3.554-3.752-0.847-1.637-1.296-3.588-1.347-5.854v0c-0.048-2.16 0.255-4.241 0.909-6.244 0.66-2.009 1.631-3.813 2.912-5.41 1.281-1.598 2.835-2.879 4.663-3.843 1.834-0.965 3.914-1.473 6.239-1.525v0c1.735-0.038 3.169 0.196 4.305 0.703 1.128 0.507 1.704 1.279 1.726 2.315v0c0.011 0.505-0.111 1.006-0.365 1.504-0.255 0.491-0.588 0.911-1 1.259-0.411 0.348-0.843 0.527-1.294 0.537v0c-0.279 0.006-0.503-0.059-0.673-0.194v0c-0.769-0.488-1.521-0.844-2.258-1.067-0.73-0.223-1.573-0.324-2.53-0.303v0c-1.987 0.044-3.658 0.536-5.013 1.477-1.349 0.941-2.366 2.163-3.051 3.668-0.678 1.498-0.998 3.117-0.96 4.859v0c0.037 1.681 0.392 3.156 1.066 4.424 0.673 1.275 1.589 2.265 2.749 2.971 1.166 0.706 2.52 1.041 4.061 1.008v0c1.236-0.027 2.43-0.3 3.583-0.818 1.152-0.518 2.167-1.222 3.045-2.112v0c0.384-0.368 0.772-0.556 1.164-0.564v0c0.332-0.007 0.575 0.127 0.727 0.403 0.146 0.276 0.222 0.554 0.228 0.832v0c0.011 0.478-0.12 1.02-0.393 1.625-0.266 0.611-0.684 1.219-1.256 1.823v0c-1.014 1.06-2.272 1.899-3.774 2.517-1.502 0.625-3.051 0.955-4.646 0.99z" fill="#0089c4" data-fill-palette-color="primary"></path><path d="M163.612 30.125v0c-1.36-0.316-2.324-0.955-2.892-1.92-0.566-0.971-0.675-2.207-0.326-3.71v0c0.246-1.062 0.648-2.119 1.206-3.169v0c0.244-0.435 0.462-0.872 0.652-1.313 0.186-0.448 0.333-0.905 0.442-1.371v0c0.278-1.198 0.089-2.061-0.567-2.588v0c-0.617-0.546-0.875-1.039-0.772-1.479v0c0.101-0.434 0.387-0.828 0.857-1.183 0.47-0.348 1.01-0.602 1.62-0.761 0.612-0.165 1.193-0.184 1.743-0.056v0c1.554 0.361 2.036 1.813 1.446 4.358v0c-0.189 0.816-0.427 1.559-0.712 2.23-0.284 0.664-0.579 1.292-0.887 1.883v0c-0.212 0.415-0.404 0.831-0.577 1.248-0.167 0.425-0.288 0.8-0.363 1.123v0c-0.317 1.366 0.195 2.205 1.535 2.516v0c1.25 0.29 2.577-0.108 3.983-1.195 1.404-1.08 2.737-2.739 4.001-4.977v0l0.141-0.787c0.265-1.378 0.746-2.362 1.442-2.951 0.696-0.589 1.566-0.763 2.608-0.521v0c0.9 0.209 1.283 0.601 1.15 1.178v0c-0.044 0.188-0.136 0.426-0.278 0.714-0.134 0.283-0.316 0.612-0.547 0.988v0c-0.514 0.952-0.997 1.973-1.447 3.063-0.457 1.088-0.796 2.108-1.017 3.06v0c-0.248 1.068-0.287 1.987-0.118 2.757 0.168 0.776 0.673 1.391 1.516 1.846v0c0.24 0.083 0.42 0.203 0.541 0.361 0.12 0.158 0.136 0.427 0.048 0.809v0c-0.152 0.654-0.572 1.232-1.262 1.734-0.696 0.5-1.562 0.63-2.599 0.39v0c-1.994-0.463-2.666-2.099-2.013-4.909v0c0.114-0.492 0.328-1.221 0.64-2.185v0l-0.079-0.06c-2.742 4.025-5.781 5.65-9.115 4.877z" fill="#0089c4" data-fill-palette-color="primary"></path><path d="M191.002 39.235v0c-0.934-0.451-1.737-1.012-2.409-1.683-0.675-0.665-1.143-1.371-1.404-2.116-0.263-0.754-0.225-1.485 0.116-2.191v0c0.182-0.377 0.451-0.69 0.808-0.939 0.356-0.249 0.747-0.271 1.172-0.066v0c0.228 0.11 0.437 0.288 0.627 0.535v0c0.334 0.471 0.802 0.985 1.404 1.541 0.602 0.556 1.296 1.024 2.081 1.403v0c0.886 0.428 1.731 0.68 2.534 0.758 0.798 0.075 1.307-0.115 1.527-0.57v0c0.17-0.353 0.034-0.729-0.409-1.127-0.44-0.404-1.225-0.986-2.357-1.747v0c-0.757-0.557-1.48-1.124-2.169-1.699-0.68-0.579-1.156-1.237-1.428-1.974-0.266-0.734-0.167-1.582 0.298-2.546v0c0.451-0.934 1.143-1.711 2.077-2.33 0.943-0.623 2.072-0.975 3.388-1.056 1.316-0.081 2.716 0.237 4.201 0.953v0c0.784 0.378 1.498 0.834 2.142 1.366 0.653 0.529 1.133 1.086 1.442 1.67 0.309 0.584 0.334 1.143 0.077 1.675v0c-0.22 0.455-0.579 0.795-1.078 1.019-0.499 0.224-1.013 0.356-1.542 0.396-0.535 0.037-0.94-0.011-1.215-0.143v0c-0.204-0.098-0.377-0.351-0.519-0.76v0c-0.261-0.561-0.615-1.035-1.064-1.421-0.454-0.389-0.933-0.705-1.436-0.947v0c-0.76-0.367-1.429-0.549-2.006-0.547-0.577 0.002-0.95 0.18-1.121 0.533v0c-0.156 0.323-0.086 0.682 0.212 1.076 0.291 0.391 0.705 0.772 1.242 1.142 0.54 0.364 1.058 0.713 1.554 1.049v0c1.363 0.908 2.357 1.816 2.982 2.722 0.619 0.904 0.63 1.976 0.032 3.215v0c-0.462 0.958-1.194 1.778-2.196 2.462-0.995 0.686-2.152 1.087-3.47 1.204-1.316 0.111-2.68-0.175-4.093-0.857z" fill="#0089c4" data-fill-palette-color="primary"></path><path d="M211.766 52.093v0c-1.362-1.032-1.996-2.225-1.903-3.581 0.093-1.356 0.682-2.749 1.765-4.179v0c0.389-0.514 0.798-0.993 1.226-1.436 0.426-0.453 0.861-0.899 1.302-1.34v0c0.442-0.441 0.872-0.87 1.289-1.287 0.426-0.419 0.821-0.825 1.185-1.217v0c-0.567-0.221-1.086-0.51-1.558-0.867v0c-0.493-0.373-0.587-0.761-0.281-1.164v0c0.321-0.424 0.905-0.799 1.752-1.124 0.847-0.326 1.781-0.573 2.802-0.743 1.03-0.17 1.985-0.248 2.865-0.231 0.885 0.02 1.529 0.183 1.932 0.488v0c0.493 0.373 0.418 0.984-0.225 1.832v0c-0.169 0.223-0.36 0.436-0.573 0.641-0.212 0.214-0.432 0.427-0.659 0.639v0c0.492 0.231 0.979 0.479 1.462 0.745 0.487 0.26 0.931 0.543 1.334 0.848v0c0.514 0.389 0.843 0.781 0.987 1.174 0.143 0.384 0.02 0.832-0.369 1.346v0c-0.409 0.54-0.944 0.982-1.604 1.324-0.665 0.338-1.154 0.389-1.467 0.153v0c-0.064-0.048-0.167-0.143-0.309-0.285-0.138-0.138-0.3-0.315-0.486-0.531v0c-0.239-0.29-0.56-0.637-0.963-1.042-0.393-0.406-0.902-0.846-1.527-1.319v0c-0.685 0.574-1.363 1.177-2.035 1.81-0.672 0.634-1.229 1.242-1.67 1.825v0c-0.98 1.293-1.325 2.42-1.035 3.381 0.298 0.96 1.062 1.906 2.291 2.837v0c0.376 0.285 0.598 0.549 0.664 0.791 0.057 0.244-0.032 0.522-0.269 0.834v0c-0.558 0.736-1.411 1.075-2.558 1.015-1.147-0.06-2.269-0.506-3.365-1.337z" fill="#0089c4" data-fill-palette-color="primary"></path><path d="M227.488 67.056v0c-1.281-1.45-1.912-2.958-1.895-4.525 0.017-1.567 0.793-3.028 2.328-4.384v0c0.717-0.634 1.501-1.148 2.349-1.543 0.849-0.395 1.714-0.685 2.597-0.87v0c-0.509-0.145-0.838-0.302-0.988-0.471v0c-0.224-0.254-0.236-0.554-0.036-0.9 0.2-0.345 0.438-0.639 0.711-0.881v0c0.483-0.427 0.955-0.666 1.415-0.717 0.46-0.052 0.846-0.046 1.158 0.015v0c0.77 0.109 1.8 0.437 3.09 0.983 1.289 0.546 2.517 1.479 3.683 2.799v0c1.597 1.809 2.33 3.658 2.199 5.548-0.126 1.885-1.094 3.627-2.902 5.224v0c-1.405 1.241-2.94 2.073-4.606 2.498-1.665 0.424-3.292 0.415-4.879-0.027-1.592-0.447-3-1.363-4.224-2.749zM231.56 65.189v0c0.928 1.051 2.045 1.648 3.35 1.791 1.301 0.137 2.497-0.276 3.588-1.24v0c1.136-1.003 1.62-2.087 1.452-3.251-0.164-1.159-0.672-2.222-1.526-3.189v0c-0.392-0.443-0.786-0.805-1.183-1.084-0.402-0.284-0.803-0.528-1.205-0.731v0c-0.678 0.076-1.385 0.23-2.119 0.461-0.726 0.233-1.405 0.629-2.038 1.188v0c-1.051 0.928-1.566 1.942-1.545 3.041 0.021 1.108 0.429 2.113 1.226 3.014z" fill="#0089c4" data-fill-palette-color="primary"></path><path d="M239.962 84.198v0c-0.43-0.907-0.319-1.456 0.334-1.648v0c1.221-0.233 2.44-0.524 3.658-0.873 1.214-0.34 2.341-0.757 3.38-1.249v0c1.345-0.638 2.289-1.184 2.831-1.64 0.539-0.461 0.866-0.889 0.981-1.282 0.106-0.396 0.127-0.825 0.063-1.288v0c-0.01-0.208 0.013-0.415 0.071-0.618 0.061-0.198 0.205-0.351 0.433-0.46v0c0.354-0.168 0.815-0.213 1.381-0.136 0.563 0.071 1.127 0.29 1.69 0.656 0.56 0.375 0.995 0.889 1.306 1.544v0c0.41 0.865 0.396 1.604-0.042 2.216-0.441 0.606-1.142 1.137-2.103 1.592v0c-0.637 0.302-1.375 0.575-2.216 0.819-0.847 0.247-1.615 0.457-2.306 0.63v0l-0.006 0.102c1.536-0.235 3.016-0.326 4.439-0.272 1.417 0.057 2.682 0.343 3.795 0.86 1.11 0.511 1.929 1.322 2.456 2.433v0c0.541 1.141 0.584 2.225 0.128 3.25-0.465 1.022-1.445 1.888-2.941 2.596v0l-0.828 0.393c1.894 0.007 3.61 0.29 5.147 0.849 1.537 0.559 2.659 1.583 3.365 3.072v0c0.578 1.219 0.624 2.364 0.138 3.433-0.486 1.069-1.339 1.893-2.559 2.471v0c-0.481 0.228-0.967 0.396-1.46 0.504-0.487 0.106-0.976 0.198-1.469 0.277v0c-0.451 0.089-0.917 0.184-1.397 0.287-0.481 0.103-0.938 0.257-1.37 0.462v0c-1.52 0.72-2.199 1.833-2.037 3.338v0c0.007 0.217-0.01 0.398-0.052 0.543-0.045 0.139-0.181 0.262-0.409 0.371v0c-0.228 0.108-0.588 0.194-1.081 0.258-0.498 0.067-1.026-0.014-1.582-0.243-0.56-0.235-1.019-0.731-1.378-1.487v0c-0.47-0.991-0.47-1.922 0-2.792 0.467-0.876 1.26-1.579 2.377-2.109v0c0.559-0.265 1.165-0.49 1.821-0.675 0.655-0.185 1.298-0.336 1.927-0.451v0c0.564-0.113 1.096-0.233 1.595-0.359 0.499-0.126 0.914-0.268 1.245-0.424v0c0.607-0.288 0.978-0.644 1.115-1.069 0.146-0.422 0.105-0.873-0.123-1.354v0c-0.384-0.811-0.986-1.42-1.804-1.827-0.809-0.404-1.737-0.662-2.785-0.776-1.044-0.108-2.131-0.112-3.26-0.011v0c-0.217 0.132-0.506 0.291-0.866 0.477-0.358 0.192-0.678 0.354-0.96 0.489v0c-0.481 0.228-1.001 0.434-1.561 0.618-0.566 0.187-1.067 0.278-1.504 0.272v0c-0.577 0.024-1.112-0.087-1.604-0.333-0.488-0.254-0.888-0.708-1.198-1.363v0c-0.134-0.282-0.203-0.577-0.209-0.883-0.005-0.306 0.118-0.519 0.371-0.639v0c0.102-0.048 0.585-0.185 1.449-0.411 0.873-0.223 1.928-0.535 3.164-0.937 1.236-0.402 2.413-0.868 3.531-1.398v0c1.213-0.575 1.994-1.1 2.343-1.574 0.349-0.474 0.404-0.964 0.165-1.469v0c-0.302-0.637-0.852-1.115-1.652-1.435-0.805-0.317-1.736-0.512-2.793-0.585-1.057-0.073-2.122-0.061-3.194 0.036-1.075 0.09-2.055 0.22-2.939 0.388v0l-0.414 0.197c-0.937 0.444-1.833 0.549-2.687 0.314-0.852-0.229-1.488-0.788-1.91-1.677z" fill="#0089c4" data-fill-palette-color="primary"></path><path d="M3.799 144.541c0-6.031 4.889-10.92 10.92-10.92 6.031 0 10.92 4.889 10.92 10.92 0 6.031-4.889 10.92-10.92 10.92-6.031 0-10.92-4.889-10.92-10.92z" fill="#0089c4" data-fill-palette-color="primary"></path><path d="M255.075 144.541c0-6.031 4.889-10.92 10.921-10.92 6.031 0 10.92 4.889 10.92 10.92 0 6.031-4.889 10.92-10.92 10.92-6.031 0-10.92-4.889-10.921-10.92z" fill="#0089c4" data-fill-palette-color="primary"></path></g><g id="text-1"><path d="M13.298 189.712v0c-0.113-0.32-0.176-0.667-0.189-1.044-0.013-0.376 0.145-0.746 0.475-1.109 0.332-0.357 0.918-0.684 1.757-0.982v0c0.595-0.211 1.342-0.422 2.24-0.633 0.898-0.212 1.877-0.414 2.938-0.606v0c1.429-0.266 2.919-0.588 4.47-0.968 1.557-0.382 3.119-0.85 4.686-1.404v0c1.272-0.45 2.353-0.903 3.242-1.358 0.892-0.449 1.561-0.859 2.009-1.229v0c-0.389-1.019-0.799-1.97-1.232-2.854-0.439-0.881-0.945-1.753-1.517-2.615v0c-0.118-0.233-0.227-0.431-0.327-0.593-0.106-0.16-0.188-0.321-0.245-0.484v0c-0.086-0.244-0.102-0.437-0.045-0.577 0.063-0.142 0.282-0.28 0.658-0.412v0c0.457-0.162 0.96-0.266 1.508-0.312 0.55-0.04 1.048 0.013 1.494 0.159v0c0.478 0.134 0.868 0.352 1.173 0.654 0.306 0.308 0.564 0.668 0.773 1.08v0c0.315 0.65 0.693 1.49 1.134 2.518 0.441 1.028 0.913 2.162 1.415 3.402 0.496 1.242 0.959 2.471 1.389 3.686v0c0.701 1.98 1.189 3.401 1.466 4.263 0.276 0.861 0.439 1.449 0.486 1.763v0c0.077 0.396 0.054 0.7-0.068 0.913-0.122 0.212-0.371 0.385-0.748 0.518v0c-0.733 0.259-1.579 0.192-2.536-0.203v0c-0.421-0.154-0.772-0.348-1.051-0.58-0.282-0.239-0.497-0.607-0.645-1.104v0c-0.097-0.452-0.28-1.1-0.549-1.942-0.272-0.849-0.59-1.787-0.954-2.815v0c-0.957 0.303-2.087 0.618-3.388 0.945-1.298 0.318-2.61 0.624-3.938 0.917v0c-1.305 0.278-2.601 0.582-3.888 0.91-1.279 0.332-2.432 0.68-3.459 1.044v0c-0.946 0.335-1.749 0.717-2.408 1.148-0.652 0.428-1.139 1.006-1.46 1.733v0c-0.249 0.511-0.59 0.843-1.022 0.996v0c-0.595 0.211-1.254 0.063-1.976-0.443-0.728-0.504-1.284-1.298-1.668-2.382z" fill="#77d4fc" data-fill-palette-color="secondary"></path><path d="M21.734 209.554v0c-0.227-0.399-0.341-0.754-0.342-1.067 0.004-0.316 0.189-0.528 0.555-0.637v0c1.229-0.339 2.453-0.728 3.672-1.168 1.215-0.445 2.334-0.959 3.356-1.54v0c1.324-0.752 2.246-1.383 2.767-1.892 0.521-0.51 0.822-0.968 0.905-1.375 0.079-0.412 0.066-0.852-0.039-1.319v0c-0.023-0.216-0.011-0.43 0.038-0.641 0.043-0.208 0.177-0.376 0.402-0.503v0c0.353-0.2 0.819-0.282 1.398-0.244 0.576 0.032 1.163 0.211 1.761 0.536 0.594 0.32 1.076 0.803 1.443 1.451v0c0.483 0.85 0.527 1.608 0.134 2.275-0.396 0.676-1.068 1.283-2.015 1.821v0c1.253-0.123 2.363-0.02 3.33 0.31 0.958 0.327 1.721 0.991 2.289 1.991v0c0.384 0.676 0.552 1.322 0.504 1.938-0.044 0.622-0.402 1.123-1.072 1.504v0c-0.676 0.384-1.431 0.522-2.265 0.415-0.836-0.099-1.382-0.373-1.637-0.825v0c-0.043-0.075-0.077-0.17-0.105-0.284-0.033-0.111-0.021-0.233 0.035-0.364v0c0.215-0.55 0.186-1.065-0.087-1.545v0c-0.41-0.723-1.246-1.089-2.505-1.099-1.26-0.011-2.738 0.435-4.435 1.338v0c-0.611 0.378-1.237 0.756-1.878 1.135-0.647 0.383-1.117 0.658-1.412 0.825v0c-0.925 0.525-1.832 0.704-2.722 0.537-0.888-0.176-1.579-0.701-2.075-1.573z" fill="#77d4fc" data-fill-palette-color="secondary"></path><path d="M36.941 231.793v0c-1.131-1.298-1.633-2.694-1.506-4.188 0.122-1.499 0.94-2.908 2.453-4.227v0c1.083-0.943 2.344-1.671 3.784-2.185 1.439-0.504 2.939-0.735 4.5-0.693 1.566 0.047 3.098 0.409 4.596 1.087 1.499 0.669 2.862 1.707 4.09 3.116v0c1.131 1.298 1.873 2.6 2.225 3.906 0.362 1.307 0.165 2.289-0.592 2.948v0c-0.195 0.17-0.471 0.37-0.825 0.601-0.346 0.231-0.645 0.398-0.897 0.503v0c-0.232 0.088-0.471 0.132-0.716 0.135-0.245 0.002-0.453-0.095-0.623-0.29v0c-0.074-0.085-0.181-0.274-0.322-0.567v0c-0.535 0.307-1.035 0.628-1.501 0.964-0.47 0.33-0.924 0.685-1.36 1.065v0c-0.822 0.716-1.442 1.477-1.86 2.282-0.423 0.8-0.391 1.636 0.096 2.509v0c0.13 0.23 0.203 0.445 0.217 0.643 0.02 0.195-0.111 0.414-0.392 0.659v0c-0.236 0.205-0.591 0.409-1.067 0.612-0.471 0.198-1 0.259-1.588 0.18-0.583-0.083-1.148-0.437-1.694-1.063v0c-0.734-0.842-0.991-1.76-0.771-2.753 0.219-0.993 0.903-1.99 2.05-2.99v0c-1.564 0.34-3.075 0.351-4.532 0.034-1.453-0.312-2.708-1.075-3.765-2.288zM41.227 229.898v0c0.751 0.862 1.685 1.388 2.803 1.578 1.118 0.19 2.247 0.11 3.388-0.24v0c0.731-0.213 1.461-0.524 2.191-0.93 0.726-0.412 1.411-0.859 2.058-1.343v0c-0.148-0.514-0.375-1.058-0.68-1.629-0.31-0.568-0.691-1.112-1.145-1.634v0c-1.148-1.318-2.484-2.068-4.008-2.248-1.524-0.171-2.87 0.252-4.038 1.269v0c-0.867 0.755-1.356 1.6-1.468 2.535-0.117 0.939 0.183 1.82 0.899 2.642z" fill="#77d4fc" data-fill-palette-color="secondary"></path><path d="M61.03 254.404v0c-0.633-0.451-1.04-1.031-1.221-1.74-0.181-0.708 0.057-1.62 0.714-2.736v0c0.519-0.83 1.044-1.779 1.575-2.845 0.531-1.066 0.99-2.115 1.374-3.147 0.385-1.032 0.596-1.901 0.635-2.609v0c0.023-0.376-0.02-0.7-0.127-0.972-0.106-0.263-0.342-0.562-0.708-0.896v0c-0.239-0.203-0.354-0.408-0.346-0.614 0.003-0.21 0.112-0.467 0.329-0.77v0c0.683-0.958 1.451-1.48 2.304-1.566 0.855-0.076 1.62 0.126 2.297 0.609v0c0.698 0.498 1.121 1.142 1.267 1.932 0.137 0.792 0.07 1.654-0.203 2.586-0.278 0.928-0.686 1.878-1.223 2.85-0.536 0.981-1.128 1.926-1.777 2.836v0c-0.266 0.373-0.551 0.762-0.856 1.166-0.3 0.398-0.551 0.738-0.751 1.019v0c-0.181 0.254-0.271 0.489-0.268 0.703 0.003 0.214 0.158 0.431 0.466 0.651v0c0.373 0.266 0.883 0.462 1.529 0.587 0.651 0.129 1.368 0.154 2.15 0.076 0.773-0.077 1.522-0.291 2.244-0.641 0.728-0.346 1.341-0.868 1.84-1.566v0c0.286-0.401 0.522-0.869 0.708-1.406 0.187-0.536 0.247-1.057 0.182-1.56v0c-0.06-0.5-0.093-0.883-0.1-1.149-0.003-0.271 0.079-0.523 0.245-0.756v0c0.301-0.422 0.769-0.672 1.404-0.75 0.637-0.069 1.293-0.021 1.969 0.142 0.676 0.163 1.211 0.386 1.606 0.668v0c0.677 0.482 0.909 1.073 0.697 1.77-0.208 0.693-0.553 1.377-1.036 2.054v0c-0.918 1.288-2.113 2.465-3.583 3.532-1.465 1.07-3.029 1.93-4.693 2.581-1.66 0.645-3.252 0.988-4.775 1.028-1.528 0.037-2.818-0.319-3.868-1.067z" fill="#77d4fc" data-fill-palette-color="secondary"></path><path d="M87.197 269.316v0c-2-0.868-3.312-2.119-3.936-3.753-0.618-1.631-0.482-3.471 0.407-5.519v0c0.813-1.872 1.959-3.393 3.438-4.562 1.482-1.176 3.109-1.919 4.881-2.229 1.779-0.308 3.497-0.101 5.156 0.619v0c1.579 0.686 2.672 1.624 3.278 2.815 0.615 1.187 0.642 2.427 0.08 3.72v0c-0.445 1.024-1.174 1.835-2.186 2.431-1.004 0.593-2.145 0.917-3.422 0.971-1.277 0.054-2.559-0.198-3.846-0.756v0c-1.579-0.686-2.718-1.601-3.417-2.745v0c-0.494 1.221-0.501 2.373-0.023 3.457 0.484 1.087 1.358 1.905 2.62 2.453v0c0.768 0.334 1.611 0.537 2.529 0.609 0.924 0.075 1.779 0.001 2.565-0.223v0c0.504-0.158 0.914-0.168 1.231-0.031v0c0.262 0.114 0.445 0.295 0.547 0.542 0.097 0.245 0.088 0.498-0.026 0.761v0c-0.252 0.579-1.087 1.126-2.505 1.64v0c-2.493 0.918-4.95 0.851-7.371-0.2zM91.823 260.291v0c0.945 0.41 1.819 0.558 2.623 0.443 0.8-0.124 1.331-0.487 1.593-1.091v0c0.217-0.5 0.176-0.982-0.123-1.444-0.302-0.457-0.821-0.846-1.559-1.166v0c-0.969-0.421-1.928-0.533-2.876-0.336-0.948 0.197-1.78 0.687-2.497 1.47v0c0.269 0.399 0.664 0.792 1.184 1.177 0.524 0.38 1.075 0.695 1.655 0.947z" fill="#77d4fc" data-fill-palette-color="secondary"></path><path d="M110.949 277.054v0c-0.816-0.19-1.366-0.554-1.65-1.091-0.291-0.539-0.306-1.368-0.045-2.488v0c0.124-0.531 0.325-1.204 0.603-2.019 0.28-0.822 0.592-1.708 0.937-2.659v0c0.449-1.165 0.888-2.39 1.317-3.676 0.428-1.279 0.782-2.521 1.062-3.725v0c0.398-1.709 0.735-3.494 1.011-5.354 0.271-1.868 0.217-3.57-0.162-5.106v0c-0.123-0.616-0.155-1.05-0.096-1.302v0c0.084-0.363 0.328-0.674 0.729-0.936 0.396-0.263 0.86-0.455 1.394-0.576 0.528-0.129 1.016-0.142 1.463-0.038v0c0.732 0.17 1.203 0.625 1.412 1.363 0.209 0.745 0.236 1.696 0.083 2.855-0.154 1.159-0.4 2.463-0.737 3.913v0c-0.514 2.208-1.051 4.103-1.611 5.686-0.558 1.576-1.065 2.96-1.52 4.15v0c-0.299 0.784-0.582 1.53-0.849 2.239-0.266 0.702-0.467 1.345-0.602 1.928v0c-0.229 0.984-0.232 1.731-0.01 2.24 0.218 0.501 0.64 1.047 1.267 1.636v0c0.175 0.157 0.299 0.298 0.372 0.425 0.074 0.12 0.089 0.277 0.044 0.471v0c-0.051 0.22-0.246 0.543-0.584 0.969-0.33 0.421-0.813 0.766-1.449 1.035-0.641 0.26-1.434 0.28-2.379 0.06z" fill="#77d4fc" data-fill-palette-color="secondary"></path><path d="M138.24 279.996v0c-2.033-0.052-3.806-0.556-5.317-1.512-1.512-0.956-2.661-2.292-3.449-4.008-0.794-1.716-1.162-3.733-1.103-6.053v0c0.056-2.213 0.469-4.327 1.239-6.342 0.77-2.022 1.849-3.82 3.239-5.393 1.39-1.574 3.044-2.808 4.962-3.704 1.918-0.902 4.067-1.323 6.446-1.262v0c1.781 0.045 3.239 0.355 4.375 0.929 1.136 0.574 1.69 1.393 1.663 2.457v0c-0.013 0.518-0.166 1.026-0.458 1.524-0.285 0.491-0.645 0.905-1.079 1.239-0.441 0.335-0.89 0.496-1.349 0.485v0c-0.286-0.007-0.513-0.086-0.682-0.237v0c-0.764-0.538-1.516-0.936-2.254-1.195-0.738-0.265-1.595-0.41-2.572-0.434v0c-2.04-0.052-3.773 0.369-5.199 1.264-1.433 0.901-2.534 2.1-3.303 3.596-0.77 1.503-1.177 3.145-1.223 4.926v0c-0.044 1.721 0.246 3.251 0.871 4.591 0.631 1.333 1.525 2.389 2.682 3.17 1.157 0.774 2.523 1.181 4.098 1.221v0c1.263 0.032 2.495-0.189 3.698-0.663 1.202-0.468 2.276-1.136 3.223-2.003v0c0.408-0.362 0.815-0.538 1.22-0.527v0c0.339 0.009 0.578 0.158 0.717 0.447 0.139 0.289 0.205 0.577 0.197 0.863v0c-0.013 0.492-0.173 1.043-0.481 1.653-0.301 0.604-0.762 1.201-1.382 1.79v0c-1.084 1.036-2.407 1.834-3.971 2.393-1.57 0.565-3.173 0.827-4.808 0.785z" fill="#77d4fc" data-fill-palette-color="secondary"></path><path d="M167.382 277.36v0c-1.4 0.32-2.578 0.163-3.535-0.47-0.956-0.634-1.611-1.722-1.963-3.264v0c-0.249-1.089-0.349-2.242-0.301-3.46v0c0.033-0.512 0.034-1.014 0.004-1.505-0.024-0.492-0.091-0.978-0.2-1.458v0c-0.282-1.231-0.84-1.942-1.675-2.133v0c-0.815-0.223-1.273-0.558-1.375-1.005v0c-0.104-0.454-0.019-0.947 0.255-1.48 0.274-0.533 0.659-1.01 1.156-1.43 0.491-0.419 1.015-0.692 1.571-0.82v0c1.594-0.365 2.688 0.752 3.283 3.351v0c0.193 0.842 0.309 1.634 0.349 2.375 0.033 0.742 0.043 1.453 0.027 2.132v0c-0.014 0.474-0.003 0.942 0.035 1.403 0.031 0.463 0.085 0.864 0.162 1.201v0c0.32 1.4 1.164 1.943 2.531 1.63v0c1.29-0.295 2.338-1.254 3.147-2.878 0.8-1.629 1.285-3.758 1.454-6.388v0l-0.231-0.786c-0.372-1.388-0.369-2.507 0.01-3.357 0.378-0.85 1.099-1.397 2.161-1.64v0c0.927-0.212 1.457-0.026 1.59 0.557v0c0.046 0.201 0.068 0.462 0.067 0.783 0 0.327-0.024 0.715-0.072 1.162v0c-0.042 1.101-0.027 2.253 0.044 3.457 0.071 1.204 0.219 2.299 0.444 3.284v0c0.249 1.089 0.623 1.951 1.124 2.587 0.494 0.637 1.232 0.976 2.217 1.017v0c0.259-0.032 0.481-0.001 0.665 0.093 0.177 0.089 0.311 0.331 0.402 0.727v0c0.153 0.667 0.024 1.389-0.385 2.164-0.411 0.769-1.15 1.276-2.22 1.52v0c-2.041 0.467-3.392-0.742-4.051-3.625v0c-0.116-0.505-0.246-1.27-0.391-2.294v0l-0.087-0.021c-0.727 4.933-2.797 7.79-6.212 8.571z" fill="#77d4fc" data-fill-palette-color="secondary"></path><path d="M198.744 266.983v0c-0.96 0.459-1.921 0.745-2.883 0.859-0.965 0.108-1.829 0.027-2.591-0.242-0.771-0.272-1.329-0.768-1.673-1.488v0c-0.186-0.39-0.265-0.809-0.237-1.257 0.026-0.44 0.257-0.764 0.696-0.974v0c0.234-0.112 0.511-0.163 0.832-0.154v0c0.591 0.034 1.302-0.011 2.134-0.137 0.829-0.131 1.645-0.389 2.449-0.773v0c0.906-0.433 1.645-0.945 2.217-1.535 0.578-0.593 0.756-1.124 0.532-1.591v0c-0.172-0.36-0.559-0.492-1.162-0.396-0.608 0.099-1.576 0.356-2.903 0.77v0c-0.932 0.254-1.85 0.468-2.755 0.642-0.895 0.177-1.724 0.139-2.486-0.115-0.759-0.263-1.374-0.887-1.845-1.87v0c-0.456-0.954-0.634-2.003-0.533-3.149 0.107-1.149 0.547-2.277 1.322-3.384 0.778-1.101 1.931-2.017 3.46-2.749v0c0.804-0.384 1.623-0.666 2.459-0.844 0.836-0.178 1.587-0.202 2.254-0.072 0.664 0.125 1.126 0.46 1.387 1.006v0c0.224 0.468 0.267 0.974 0.129 1.519-0.14 0.539-0.365 1.033-0.673 1.482-0.308 0.449-0.606 0.743-0.894 0.881v0c-0.204 0.097-0.517 0.074-0.939-0.071v0c-0.613-0.157-1.219-0.176-1.819-0.058-0.597 0.108-1.156 0.287-1.678 0.536v0c-0.774 0.37-1.344 0.786-1.712 1.25-0.368 0.463-0.466 0.875-0.294 1.235v0c0.161 0.336 0.492 0.513 0.994 0.53 0.499 0.012 1.067-0.079 1.704-0.273 0.646-0.191 1.255-0.379 1.83-0.565v0c1.606-0.51 2.967-0.722 4.083-0.637 1.122 0.082 1.988 0.759 2.596 2.03v0c0.47 0.984 0.659 2.094 0.565 3.333-0.087 1.235-0.506 2.416-1.258 3.541-0.754 1.119-1.857 2.026-3.308 2.72z" fill="#77d4fc" data-fill-palette-color="secondary"></path><path d="M222.664 252.325v0c-1.398 1.05-2.749 1.337-4.054 0.861-1.31-0.471-2.515-1.441-3.616-2.908v0c-0.395-0.526-0.753-1.064-1.074-1.613-0.321-0.549-0.636-1.102-0.946-1.658v0c-0.31-0.557-0.612-1.103-0.906-1.639-0.294-0.536-0.583-1.037-0.868-1.506v0c-0.375 0.497-0.804 0.928-1.288 1.291v0c-0.505 0.379-0.911 0.364-1.218-0.045v0c-0.327-0.436-0.534-1.116-0.621-2.04-0.081-0.928-0.063-1.922 0.054-2.983 0.122-1.056 0.316-2.016 0.581-2.88 0.266-0.864 0.606-1.452 1.021-1.764v0c0.505-0.379 1.085-0.133 1.739 0.739v0c0.172 0.229 0.331 0.479 0.477 0.752 0.148 0.263 0.293 0.54 0.437 0.832v0c0.364-0.423 0.746-0.839 1.146-1.247 0.395-0.404 0.797-0.76 1.206-1.068v0c0.532-0.399 1.011-0.613 1.438-0.642 0.423-0.035 0.834 0.214 1.233 0.745v0c0.411 0.548 0.691 1.198 0.84 1.95 0.149 0.752 0.064 1.248-0.255 1.488v0c-0.069 0.052-0.193 0.124-0.373 0.217-0.175 0.098-0.398 0.212-0.667 0.339v0c-0.35 0.154-0.779 0.369-1.288 0.643-0.505 0.279-1.079 0.661-1.723 1.144v0c0.366 0.831 0.769 1.667 1.21 2.508 0.431 0.84 0.87 1.558 1.317 2.153v0c1.002 1.334 2.014 1.991 3.038 1.971 1.028-0.015 2.174-0.497 3.439-1.447v0c0.388-0.291 0.71-0.433 0.965-0.425 0.261 0.004 0.511 0.165 0.75 0.484v0c0.571 0.76 0.663 1.697 0.276 2.81-0.386 1.113-1.143 2.092-2.27 2.938z" fill="#77d4fc" data-fill-palette-color="secondary"></path><path d="M241.086 235.021v0c-1.319 1.478-2.777 2.302-4.373 2.471-1.596 0.17-3.175-0.442-4.736-1.836v0c-0.729-0.651-1.345-1.383-1.848-2.198-0.503-0.814-0.901-1.66-1.196-2.538v0c-0.092 0.533-0.216 0.886-0.37 1.059v0c-0.226 0.253-0.527 0.3-0.903 0.143-0.372-0.163-0.696-0.368-0.974-0.616v0c-0.496-0.443-0.797-0.894-0.903-1.354-0.106-0.46-0.15-0.855-0.131-1.186v0c0.017-0.787 0.226-1.87 0.629-3.249 0.398-1.374 1.199-2.735 2.403-4.084v0c1.643-1.84 3.431-2.809 5.365-2.909 1.943-0.1 3.835 0.671 5.674 2.313v0c1.433 1.28 2.464 2.74 3.094 4.38 0.634 1.645 0.82 3.303 0.556 4.976-0.263 1.672-1.026 3.215-2.287 4.628zM238.703 231.102v0c0.956-1.071 1.427-2.277 1.413-3.618-0.015-1.341-0.58-2.51-1.695-3.506v0c-1.155-1.032-2.313-1.392-3.473-1.082-1.164 0.306-2.187 0.952-3.068 1.939v0c-0.403 0.451-0.721 0.898-0.955 1.34-0.239 0.437-0.438 0.875-0.597 1.312v0c0.156 0.683 0.398 1.38 0.726 2.091 0.323 0.716 0.807 1.362 1.451 1.938v0c1.071 0.956 2.167 1.356 3.288 1.198 1.117-0.153 2.087-0.69 2.91-1.612z" fill="#77d4fc" data-fill-palette-color="secondary"></path><path d="M256.341 213.596v0c-0.448 0.935-0.955 1.201-1.521 0.797v0c-0.98-0.816-1.998-1.599-3.054-2.349-1.059-0.744-2.119-1.37-3.179-1.878v0c-1.373-0.658-2.417-1.056-3.133-1.193-0.716-0.137-1.266-0.12-1.649 0.05-0.381 0.164-0.733 0.422-1.058 0.776v0c-0.164 0.142-0.347 0.254-0.547 0.334-0.195 0.084-0.409 0.069-0.643-0.043v0c-0.366-0.175-0.698-0.512-0.998-1.009-0.302-0.492-0.488-1.082-0.556-1.77-0.071-0.683 0.055-1.36 0.377-2.031v0c0.422-0.881 1.017-1.344 1.783-1.39 0.772-0.043 1.65 0.172 2.633 0.643v0c0.647 0.31 1.339 0.72 2.076 1.228 0.74 0.517 1.403 0.994 1.991 1.43v0l0.079-0.05c-1.174-1.072-2.199-2.193-3.075-3.366-0.873-1.163-1.463-2.353-1.771-3.57-0.309-1.217-0.19-2.395 0.356-3.533v0c0.558-1.163 1.393-1.89 2.506-2.182 1.113-0.292 2.431-0.073 3.953 0.657v0l0.854 0.409c-1.214-1.511-2.095-3.057-2.641-4.639-0.546-1.582-0.453-3.137 0.28-4.665v0c0.595-1.241 1.474-2.013 2.637-2.318 1.161-0.299 2.364-0.149 3.611 0.448v0c0.492 0.236 0.938 0.512 1.339 0.83 0.407 0.32 0.797 0.651 1.171 0.993v0c0.365 0.3 0.743 0.611 1.135 0.931 0.389 0.312 0.802 0.572 1.239 0.783v0c1.558 0.747 2.885 0.572 3.979-0.526v0c0.167-0.148 0.32-0.252 0.458-0.311 0.139-0.059 0.325-0.032 0.559 0.08v0c0.234 0.112 0.538 0.346 0.913 0.703 0.371 0.348 0.647 0.819 0.826 1.414 0.17 0.598 0.07 1.283-0.301 2.056v0c-0.483 1.007-1.224 1.606-2.222 1.799-0.999 0.192-2.068 0.015-3.207-0.531v0c-0.569-0.273-1.141-0.61-1.715-1.011-0.566-0.404-1.096-0.82-1.591-1.249v0c-0.461-0.376-0.901-0.719-1.319-1.031-0.424-0.314-0.804-0.552-1.14-0.713v0c-0.623-0.299-1.146-0.369-1.569-0.21-0.431 0.162-0.765 0.488-1.001 0.98v0c-0.397 0.827-0.492 1.695-0.287 2.605 0.199 0.906 0.592 1.81 1.178 2.71 0.583 0.906 1.28 1.775 2.09 2.605v0c0.245 0.088 0.56 0.217 0.943 0.386 0.386 0.163 0.72 0.312 1.002 0.447v0c0.492 0.236 0.994 0.517 1.508 0.845 0.508 0.325 0.901 0.664 1.181 1.02v0c0.391 0.445 0.646 0.944 0.765 1.494 0.113 0.548 0.009 1.158-0.313 1.83v0c-0.135 0.282-0.323 0.527-0.563 0.736-0.237 0.203-0.488 0.241-0.752 0.115v0c-0.102-0.049-0.523-0.347-1.264-0.893-0.74-0.547-1.667-1.183-2.779-1.908-1.118-0.728-2.247-1.365-3.385-1.911v0c-1.241-0.595-2.163-0.878-2.766-0.85-0.603 0.028-1.03 0.302-1.279 0.824v0c-0.31 0.647-0.332 1.393-0.066 2.235 0.261 0.84 0.705 1.705 1.332 2.596 0.621 0.888 1.316 1.729 2.084 2.525 0.762 0.793 1.495 1.487 2.198 2.083v0l0.422 0.202c0.959 0.46 1.624 1.103 1.995 1.929 0.362 0.829 0.325 1.697-0.109 2.602z" fill="#77d4fc" data-fill-palette-color="secondary"></path></g></svg></g></svg></g></svg></g></svg></g><defs></defs></svg><rect width="280" height="280" fill="none" stroke="none" visibility="hidden"></rect></g></svg></g></svg>